<?xml version="1.0" encoding="UTF-8"?>
<!DOCTYPE svg PUBLIC "-//W3C//DTD SVG 1.1//EN"
    "http://www.w3.org/Graphics/SVG/1.1/DTD/svg11.dtd"><svg xmlns="http://www.w3.org/2000/svg" height="800.0000" stroke-opacity="1" viewBox="0 0 1200 800" font-size="1" width="1200.0000" xmlns:xlink="http://www.w3.org/1999/xlink" stroke="rgb(0,0,0)" version="1.1"><defs></defs><defs></defs><g stroke-linejoin="miter" stroke-opacity="1.0" fill-opacity="0.0" stroke="rgb(0,0,0)" stroke-width="2.3186202793903106" fill="rgb(0,0,0)" stroke-linecap="butt" stroke-miterlimit="10.0"><path d="M 0.0000,500.0000 c 20.0000,-0.0000 20.0000,40.0000 40.0000 40.0000c 20.0000,0.0000 20.0000,-40.0000 40.0000 -40.0000c 20.0000,-0.0000 20.0000,40.0000 40.0000 40.0000c 20.0000,0.0000 20.0000,-40.0000 40.0000 -40.0000c 20.0000,-0.0000 20.0000,40.0000 40.0000 40.0000c 20.0000,0.0000 20.0000,-40.0000 40.0000 -40.0000c 20.0000,-0.0000 20.0000,40.0000 40.0000 40.0000c 20.0000,0.0000 20.0000,-40.0000 40.0000 -40.0000c 20.0000,-0.0000 20.0000,40.0000 40.0000 40.0000c 20.0000,0.0000 20.0000,-40.0000 40.0000 -40.0000c 20.0000,-0.0000 20.0000,40.0000 40.0000 40.0000c 20.0000,0.0000 20.0000,-40.0000 40.0000 -40.0000c 20.0000,-0.0000 20.0000,40.0000 40.0000 40.0000c 20.0000,0.0000 20.0000,-40.0000 40.0000 -40.0000c 20.0000,-0.0000 20.0000,40.0000 40.0000 40.0000c 20.0000,0.0000 20.0000,-40.0000 40.0000 -40.0000c 20.0000,-0.0000 20.0000,40.0000 40.0000 40.0000c 20.0000,0.0000 20.0000,-40.0000 40.0000 -40.0000c 20.0000,-0.0000 20.0000,40.0000 40.0000 40.0000c 20.0000,0.0000 20.0000,-40.0000 40.0000 -40.0000c 20.0000,-0.0000 20.0000,40.0000 40.0000 40.0000c 20.0000,0.0000 20.0000,-40.0000 40.0000 -40.0000c 20.0000,-0.0000 20.0000,40.0000 40.0000 40.0000c 20.0000,0.0000 20.0000,-40.0000 40.0000 -40.0000c 20.0000,-0.0000 20.0000,40.0000 40.0000 40.0000c 20.0000,0.0000 20.0000,-40.0000 40.0000 -40.0000c 20.0000,-0.0000 20.0000,40.0000 40.0000 40.0000c 20.0000,0.0000 20.0000,-40.0000 40.0000 -40.0000c 20.0000,-0.0000 20.0000,40.0000 40.0000 40.0000c 20.0000,0.0000 20.0000,-40.0000 40.0000 -40.0000c 0.0000,-0.0000 0.0000,-0.0000 0.0000 -0.0000"/></g><defs></defs><g stroke-linejoin="miter" stroke-opacity="1.0" fill-opacity="0.0" stroke="rgb(255,0,0)" stroke-width="2.3186202793903106" fill="rgb(0,0,0)" stroke-linecap="butt" stroke-miterlimit="10.0"><path d="M 0.0000,420.0000 c 17.7778,-0.0000 17.7778,40.0000 35.5556 40.0000c 17.7778,0.0000 17.7778,-40.0000 35.5556 -40.0000c 17.7778,-0.0000 17.7778,40.0000 35.5556 40.0000c 17.7778,0.0000 17.7778,-40.0000 35.5556 -40.0000c 17.7778,-0.0000 17.7778,40.0000 35.5556 40.0000c 17.7778,0.0000 17.7778,-40.0000 35.5556 -40.0000c 17.7778,-0.0000 17.7778,40.0000 35.5556 40.0000c 17.7778,0.0000 17.7778,-40.0000 35.5556 -40.0000c 17.7778,-0.0000 17.7778,40.0000 35.5556 40.0000c 17.7778,0.0000 17.7778,-40.0000 35.5556 -40.0000c 17.7778,-0.0000 17.7778,40.0000 35.5556 40.0000c 17.7778,0.0000 17.7778,-40.0000 35.5556 -40.0000c 17.7778,-0.0000 17.7778,40.0000 35.5556 40.0000c 17.7778,0.0000 17.7778,-40.0000 35.5556 -40.0000c 17.7778,-0.0000 17.7778,40.0000 35.5556 40.0000c 17.7778,0.0000 17.7778,-40.0000 35.5556 -40.0000c 17.7778,-0.0000 17.7778,40.0000 35.5556 40.0000c 17.7778,0.0000 17.7778,-40.0000 35.5556 -40.0000c 17.7778,-0.0000 17.7778,40.0000 35.5556 40.0000c 17.7778,0.0000 17.7778,-40.0000 35.5556 -40.0000c 17.7778,-0.0000 17.7778,40.0000 35.5556 40.0000c 17.7778,0.0000 17.7778,-40.0000 35.5556 -40.0000c 17.7778,-0.0000 17.7778,40.0000 35.5556 40.0000c 17.7778,0.0000 17.7778,-40.0000 35.5556 -40.0000c 17.7778,-0.0000 17.7778,40.0000 35.5556 40.0000c 17.7778,0.0000 17.7778,-40.0000 35.5556 -40.0000c 17.7778,-0.0000 17.7778,40.0000 35.5556 40.0000c 17.7778,0.0000 17.7778,-40.0000 35.5556 -40.0000c 17.7778,-0.0000 17.7778,40.0000 35.5556 40.0000c 17.7778,0.0000 17.7778,-40.0000 35.5556 -40.0000c 17.7778,-0.0000 17.7778,40.0000 35.5556 40.0000c 17.7778,0.0000 17.7778,-40.0000 35.5556 -40.0000c 17.7778,-0.0000 17.7778,40.0000 35.5556 40.0000c 13.3333,-0.0000 16.6667,-22.5000 25.0000 -33.7500"/></g><defs></defs><g stroke-linejoin="miter" stroke-opacity="1.0" fill-opacity="0.0" stroke="rgb(0,0,0)" stroke-width="2.3186202793903106" fill="rgb(0,0,0)" stroke-linecap="butt" stroke-miterlimit="10.0"><path d="M 0.0000,340.0000 c 16.0000,-0.0000 16.0000,40.0000 32.0000 40.0000c 16.0000,0.0000 16.0000,-40.0000 32.0000 -40.0000c 16.0000,-0.0000 16.0000,40.0000 32.0000 40.0000c 16.0000,0.0000 16.0000,-40.0000 32.0000 -40.0000c 16.0000,-0.0000 16.0000,40.0000 32.0000 40.0000c 16.0000,0.0000 16.0000,-40.0000 32.0000 -40.0000c 16.0000,-0.0000 16.0000,40.0000 32.0000 40.0000c 16.0000,0.0000 16.0000,-40.0000 32.0000 -40.0000c 16.0000,-0.0000 16.0000,40.0000 32.0000 40.0000c 16.0000,0.0000 16.0000,-40.0000 32.0000 -40.0000c 16.0000,-0.0000 16.0000,40.0000 32.0000 40.0000c 16.0000,0.0000 16.0000,-40.0000 32.0000 -40.0000c 16.0000,-0.0000 16.0000,40.0000 32.0000 40.0000c 16.0000,0.0000 16.0000,-40.0000 32.0000 -40.0000c 16.0000,-0.0000 16.0000,40.0000 32.0000 40.0000c 16.0000,0.0000 16.0000,-40.0000 32.0000 -40.0000c 16.0000,-0.0000 16.0000,40.0000 32.0000 40.0000c 16.0000,0.0000 16.0000,-40.0000 32.0000 -40.0000c 16.0000,-0.0000 16.0000,40.0000 32.0000 40.0000c 16.0000,0.0000 16.0000,-40.0000 32.0000 -40.0000c 16.0000,-0.0000 16.0000,40.0000 32.0000 40.0000c 16.0000,0.0000 16.0000,-40.0000 32.0000 -40.0000c 16.0000,-0.0000 16.0000,40.0000 32.0000 40.0000c 16.0000,0.0000 16.0000,-40.0000 32.0000 -40.0000c 16.0000,-0.0000 16.0000,40.0000 32.0000 40.0000c 16.0000,0.0000 16.0000,-40.0000 32.0000 -40.0000c 16.0000,-0.0000 16.0000,40.0000 32.0000 40.0000c 16.0000,0.0000 16.0000,-40.0000 32.0000 -40.0000c 16.0000,-0.0000 16.0000,40.0000 32.0000 40.0000c 16.0000,0.0000 16.0000,-40.0000 32.0000 -40.0000c 16.0000,-0.0000 16.0000,40.0000 32.0000 40.0000c 16.0000,0.0000 16.0000,-40.0000 32.0000 -40.0000c 16.0000,-0.0000 16.0000,40.0000 32.0000 40.0000c 16.0000,0.0000 16.0000,-40.0000 32.0000 -40.0000c 16.0000,-0.0000 16.0000,40.0000 32.0000 40.0000c 16.0000,0.0000 16.0000,-40.0000 32.0000 -40.0000c 16.0000,-0.0000 16.0000,40.0000 32.0000 40.0000c 8.0000,-0.0000 12.0000,-10.0000 16.0000 -20.0000"/></g><defs></defs><g stroke-linejoin="miter" stroke-opacity="1.0" fill-opacity="0.0" stroke="rgb(0,0,0)" stroke-width="2.3186202793903106" fill="rgb(0,0,0)" stroke-linecap="butt" stroke-miterlimit="10.0"><path d="M 0.0000,260.0000 c 13.3333,-0.0000 13.3333,40.0000 26.6667 40.0000c 13.3333,0.0000 13.3333,-40.0000 26.6667 -40.0000c 13.3333,-0.0000 13.3333,40.0000 26.6667 40.0000c 13.3333,0.0000 13.3333,-40.0000 26.6667 -40.0000c 13.3333,-0.0000 13.3333,40.0000 26.6667 40.0000c 13.3333,0.0000 13.3333,-40.0000 26.6667 -40.0000c 13.3333,-0.0000 13.3333,40.0000 26.6667 40.0000c 13.3333,0.0000 13.3333,-40.0000 26.6667 -40.0000c 13.3333,-0.0000 13.3333,40.0000 26.6667 40.0000c 13.3333,0.0000 13.3333,-40.0000 26.6667 -40.0000c 13.3333,-0.0000 13.3333,40.0000 26.6667 40.0000c 13.3333,0.0000 13.3333,-40.0000 26.6667 -40.0000c 13.3333,-0.0000 13.3333,40.0000 26.6667 40.0000c 13.3333,0.0000 13.3333,-40.0000 26.6667 -40.0000c 13.3333,-0.0000 13.3333,40.0000 26.6667 40.0000c 13.3333,0.0000 13.3333,-40.0000 26.6667 -40.0000c 13.3333,-0.0000 13.3333,40.0000 26.6667 40.0000c 13.3333,0.0000 13.3333,-40.0000 26.6667 -40.0000c 13.3333,-0.0000 13.3333,40.0000 26.6667 40.0000c 13.3333,0.0000 13.3333,-40.0000 26.6667 -40.0000c 13.3333,-0.0000 13.3333,40.0000 26.6667 40.0000c 13.3333,0.0000 13.3333,-40.0000 26.6667 -40.0000c 13.3333,-0.0000 13.3333,40.0000 26.6667 40.0000c 13.3333,0.0000 13.3333,-40.0000 26.6667 -40.0000c 13.3333,-0.0000 13.3333,40.0000 26.6667 40.0000c 13.3333,0.0000 13.3333,-40.0000 26.6667 -40.0000c 13.3333,-0.0000 13.3333,40.0000 26.6667 40.0000c 13.3333,0.0000 13.3333,-40.0000 26.6667 -40.0000c 13.3333,-0.0000 13.3333,40.0000 26.6667 40.0000c 13.3333,0.0000 13.3333,-40.0000 26.6667 -40.0000c 13.3333,-0.0000 13.3333,40.0000 26.6667 40.0000c 13.3333,0.0000 13.3333,-40.0000 26.6667 -40.0000c 13.3333,-0.0000 13.3333,40.0000 26.6667 40.0000c 13.3333,0.0000 13.3333,-40.0000 26.6667 -40.0000c 13.3333,-0.0000 13.3333,40.0000 26.6667 40.0000c 13.3333,0.0000 13.3333,-40.0000 26.6667 -40.0000c 13.3333,-0.0000 13.3333,40.0000 26.6667 40.0000c 13.3333,0.0000 13.3333,-40.0000 26.6667 -40.0000c 13.3333,-0.0000 13.3333,40.0000 26.6667 40.0000c 13.3333,0.0000 13.3333,-40.0000 26.6667 -40.0000c 13.3333,-0.0000 13.3333,40.0000 26.6667 40.0000c 13.3333,0.0000 13.3333,-40.0000 26.6667 -40.0000c 13.3333,-0.0000 13.3333,40.0000 26.6667 40.0000c 13.3333,0.0000 13.3333,-40.0000 26.6667 -40.0000c 13.3333,-0.0000 13.3333,40.0000 26.6667 40.0000c 0.0000,-0.0000 0.0000,-0.0000 0.0000 -0.0000"/></g></svg>